<svg width="29" height="29" viewBox="0 0 29 29" fill="none" xmlns="http://www.w3.org/2000/svg">
<path fill-rule="evenodd" clip-rule="evenodd" d="M16.353 6.00012L20.3535 1.99984C21.6868 0.666613 22.3535 0 23.1819 0C24.0103 0 24.6769 0.666612 26.0102 1.99984L27.0004 2.98993C28.3338 4.3233 29.0005 4.98998 29.0005 5.81844C29.0005 6.6469 28.3338 7.31358 27.0004 8.64695L23.0364 12.6107C20.276 11.0055 17.9783 8.7251 16.353 6.00012ZM14.8987 7.45432L2.43499 19.9173L2.43497 19.9173C2.0099 20.3424 1.79736 20.5549 1.65761 20.816C1.51787 21.0771 1.45892 21.3719 1.34102 21.9613L0.0638563 28.3468C-0.00266934 28.6794 -0.0359322 28.8457 0.0586748 28.9403C0.153282 29.0349 0.319587 29.0016 0.652198 28.9351L7.03818 27.658L7.0382 27.658C7.62762 27.5401 7.92233 27.4812 8.18342 27.3414C8.44451 27.2017 8.65704 26.9892 9.0821 26.5642L21.5783 14.0687C18.8687 12.3993 16.5854 10.1321 14.8987 7.45432Z" fill="black" fill-opacity="0.75"/>
</svg>
