<svg width="49" height="48" viewBox="0 0 49 48" fill="none" xmlns="http://www.w3.org/2000/svg">
<path d="M32.5 32L24.5 24L16.5 32" stroke="black" stroke-opacity="0.75" stroke-width="2" stroke-linecap="round" stroke-linejoin="round"/>
<path d="M24.5 24V42" stroke="black" stroke-opacity="0.75" stroke-width="2" stroke-linecap="round" stroke-linejoin="round"/>
<path d="M41.28 36.78C43.2307 35.7165 44.7717 34.0337 45.6597 31.9972C46.5478 29.9607 46.7324 27.6864 46.1844 25.5334C45.6364 23.3803 44.387 21.471 42.6333 20.1069C40.8797 18.7427 38.7217 18.0014 36.5 18H33.98C33.3746 15.6585 32.2463 13.4846 30.6799 11.642C29.1135 9.79927 27.1497 8.33567 24.9362 7.36118C22.7227 6.3867 20.3171 5.92669 17.9002 6.01573C15.4834 6.10478 13.1181 6.74057 10.9823 7.8753C8.84657 9.01003 6.99582 10.6142 5.56924 12.5671C4.14266 14.5201 3.17738 16.771 2.74596 19.1508C2.31454 21.5305 2.42821 23.977 3.07842 26.3065C3.72864 28.636 4.89848 30.7877 6.5 32.6" stroke="black" stroke-opacity="0.75" stroke-width="2" stroke-linecap="round" stroke-linejoin="round"/>
<path d="M32.5 32L24.5 24L16.5 32" stroke="black" stroke-opacity="0.75" stroke-width="2" stroke-linecap="round" stroke-linejoin="round"/>
</svg>
