<svg width="25" height="25" viewBox="0 0 25 25" fill="none" xmlns="http://www.w3.org/2000/svg">
<g clip-path="url(#clip0_25_620)">
<path d="M10.1007 19.1679C10.6317 18.9615 11.2301 18.6393 11.8985 18.1871C11.6839 17.4515 11.2874 16.7583 10.7085 16.1793C9.95536 15.4262 8.99225 14.9603 7.95143 14.8335C7.50602 15.6688 7.2377 16.386 7.12158 16.9924C8.39174 17.269 9.46617 18.0754 10.1007 19.1679Z" fill="black" fill-opacity="0.75"/>
<path d="M6.17347 24.9994C8.12056 24.9863 9.695 23.4043 9.695 21.4541C9.695 19.4958 8.10745 17.9082 6.14908 17.9082C4.19944 17.9082 2.61653 19.4903 2.60245 21.4366C2.60245 21.4356 2.60245 21.4347 2.60245 21.4347C2.60245 21.4347 2.60245 21.4354 2.60245 21.4371C2.60245 22.2449 1.53571 25 0 25H6.17347V24.9994Z" fill="black" fill-opacity="0.75"/>
<path d="M24.8894 0.0903429L24.8893 0.0904449L24.8794 0.0813633L24.8795 0.0812612C24.0924 -0.637106 17.3878 3.49381 12.2898 9.05305C10.5823 10.9328 9.34383 12.5379 8.50098 13.8871C9.60348 14.106 10.6171 14.645 11.4299 15.4578C12.0434 16.0713 12.4883 16.7905 12.7655 17.5571C14.003 16.6001 15.445 15.2519 17.1019 13.4451C22.1736 7.86182 25.6765 0.808761 24.8894 0.0903429Z" fill="black" fill-opacity="0.75"/>
</g>
<defs>
<clipPath id="clip0_25_620">
<rect width="25" height="25" fill="white"/>
</clipPath>
</defs>
</svg>
